<svg width="40" height="25" viewBox="0 0 40 25" fill="none" xmlns="http://www.w3.org/2000/svg">
<path d="M28 0H12C5.3725 0 0 5.54036 0 12.5C0 19.4596 5.3725 25 12 25H28C34.625 25 40 19.4036 40 12.5C40 5.59635 34.625 0 28 0ZM15.4438 14.0625H13.4438V16.1458C13.4438 17.0052 12.77 17.7083 11.945 17.7083C11.12 17.7083 10.4438 17.0052 10.4438 16.1458V14.0625L8.5 14.0039C7.675 14.0039 6.94375 13.3594 6.94375 12.5C6.94375 11.6406 7.62187 10.9368 8.44687 10.9368L10.4438 10.9375V8.85417C10.4438 7.99479 11.12 7.29167 11.945 7.29167C12.77 7.29167 13.4438 7.99479 13.4438 8.85417V10.9375H15.4438C16.2688 10.9375 16.945 11.6406 16.945 12.5C16.9438 13.3594 16.325 14.0625 15.4438 14.0625ZM26.9438 18.2292C25.5613 18.2292 24.5 17.0658 24.5 15.6836C24.5 14.3014 25.6169 13.0794 26.9438 13.0794C28.2706 13.0794 29.3875 14.2435 29.3875 15.6836C29.3875 17.1237 28.3813 18.2292 26.9438 18.2292ZM30.9438 11.9792C29.5613 11.9792 28.5 10.8158 28.5 9.43359C28.5 8.05143 29.6169 6.82943 30.9438 6.82943C32.3263 6.82943 33.3875 7.99349 33.3875 9.43359C33.3875 10.8737 32.3812 11.9792 30.9438 11.9792Z" fill="#C4C4C4"/>
</svg>
