<svg width="25" height="25" viewBox="0 0 25 25" fill="none" xmlns="http://www.w3.org/2000/svg">
<path d="M24.9924 12.4756C24.9924 13.3545 24.3413 14.043 23.6034 14.043H22.2145L22.2448 21.8604C22.2448 21.9971 22.2362 22.124 22.2231 22.2559V23.0469C22.2231 24.126 21.4462 25 20.487 25H19.7925C19.7447 25 19.697 24.9561 19.6493 24.9951C19.5885 24.9561 19.5277 25 19.467 25H17.0146C16.0554 25 15.2784 24.126 15.2784 23.0469V18.75C15.2784 17.8857 14.6577 17.1875 13.8895 17.1875H11.1116C10.3433 17.1875 9.72263 17.8857 9.72263 18.75V23.0469C9.72263 24.126 8.94568 25 7.98644 25H5.56013C5.49502 25 5.42991 24.9951 5.36481 24.9902C5.31272 24.9951 5.26063 25 5.20855 25H4.51408C3.55527 25 2.77789 24.126 2.77789 23.0469V17.5781C2.77789 17.5342 2.7792 17.4854 2.7818 17.4414V14.043H1.39112C0.608532 14.043 0 13.3545 0 12.4756C0 12.0361 0.130387 11.6455 0.43448 11.3037L11.563 0.391406C11.8668 0.0489258 12.214 0 12.5179 0C12.8217 0 13.1689 0.0978515 13.4337 0.34248L24.5149 11.3037C24.8621 11.6455 25.0401 12.0361 24.9924 12.4756Z" fill="#02577A"/>
</svg>
