<svg width="25" height="25" viewBox="0 0 25 25" fill="none" xmlns="http://www.w3.org/2000/svg">
<path d="M8.48214 3.125H16.5179V1.17188C16.5179 0.524902 17.115 0 17.8571 0C18.5993 0 19.1964 0.524902 19.1964 1.17188V3.125H21.4286C23.3984 3.125 25 4.52393 25 6.25V21.875C25 23.5986 23.3984 25 21.4286 25H3.57143C1.59877 25 0 23.5986 0 21.875V6.25C0 4.52393 1.59877 3.125 3.57143 3.125H5.80357V1.17188C5.80357 0.524902 6.40067 0 7.14286 0C7.88504 0 8.48214 0.524902 8.48214 1.17188V3.125ZM2.67857 12.1094H7.14286L25 0L2.67857 9.375V12.1094ZM2.67857 14.4531V17.5781H7.14286V14.4531H2.67857ZM9.82143 14.4531V17.5781H15.1786V14.4531H9.82143ZM17.8571 14.4531V17.5781H22.3214V14.4531H17.8571ZM22.3214 9.375H17.8571V12.1094H22.3214V9.375ZM22.3214 19.9219H17.8571V22.6562H21.4286C21.9196 22.6562 22.3214 22.3047 22.3214 21.875V19.9219ZM15.1786 19.9219H9.82143V22.6562H15.1786V19.9219ZM7.14286 19.9219H2.67857V21.875C2.67857 22.3047 3.07812 22.6562 3.57143 22.6562H7.14286V19.9219ZM15.1786 9.375H9.82143V12.1094H15.1786V9.375Z" fill="#C4C4C4"/>
</svg>
