<svg width="25" height="25" viewBox="0 0 25 25" fill="none" xmlns="http://www.w3.org/2000/svg">
<path d="M7.46962 1.95501L11.6363 0.177584C12.1918 -0.0591946 12.8082 -0.0591946 13.3637 0.177584L17.5304 1.95501C18.4722 2.35786 19.0972 3.37548 19.0972 4.51176V9.98955C19.1536 10.0091 19.2101 10.0286 19.2665 10.0091L23.4332 11.8305C24.375 12.2309 25 13.2514 25 14.3843V20.2049C25 21.2889 24.4314 22.2704 23.546 22.705L19.3793 24.7656C18.7587 25.0781 18.0469 25.0781 17.4262 24.7656L12.5 22.3339L7.57378 24.7656C6.95312 25.0781 6.24132 25.0781 5.62066 24.7656L1.45226 22.705C0.569878 22.2704 0 21.2889 0 20.2049V14.3843C0 13.2514 0.624566 12.2309 1.56901 11.8305L5.73351 10.0091C5.78993 10.0286 5.84635 10.0091 5.90278 9.98955V4.51176C5.90278 3.37548 6.52778 2.35786 7.46962 1.95501ZM12.6215 2.36909C12.5434 2.3354 12.4175 2.3354 12.3785 2.36909L8.97569 3.81984L12.4609 5.3409L16.0243 3.81984L12.6215 2.36909ZM17.0139 10.2777V5.90245L13.4375 7.44549V11.8012L17.0139 10.2777ZM6.71875 12.2455C6.64062 12.2113 6.51476 12.2113 6.47569 12.2455L3.07335 13.6958L6.59722 15.2144L10.1215 13.6958L6.71875 12.2455ZM7.53472 22.2264L11.1111 20.4588V15.7759L7.53472 17.319V22.2264ZM14.8785 13.6958L18.4028 15.2144L21.9271 13.6958L18.5243 12.2455C18.4462 12.2113 18.3203 12.2113 18.2812 12.2455L14.8785 13.6958ZM22.9167 20.2049V15.7759L19.3403 17.319V22.2264L22.7083 20.5613C22.8342 20.4978 22.9167 20.3611 22.9167 20.2049Z" fill="#C4C4C4"/>
</svg>
